<svg width="17" height="11" viewBox="0 0 17 11" fill="none" xmlns="http://www.w3.org/2000/svg">
<path d="M14.4563 1.72707C14.4563 0.899239 13.7061 0.221924 12.7891 0.221924H10.2883V1.72707H12.7891V3.72138L9.8882 6.99507H6.95394V3.23221H3.61955C1.7773 3.23221 0.285156 4.57932 0.285156 6.2425V8.50022H1.95235C1.95235 9.74949 3.06937 10.7579 4.45314 10.7579C5.83692 10.7579 6.95394 9.74949 6.95394 8.50022H10.6885L14.4563 4.24819V1.72707ZM4.45314 9.25279C3.99467 9.25279 3.61955 8.91413 3.61955 8.50022H5.28674C5.28674 8.91413 4.91162 9.25279 4.45314 9.25279Z" fill="black"/>
<path d="M6.95389 0.974487H2.78589V2.47961H6.95389V0.974487Z" fill="black"/>
<path d="M14.4564 6.24249C13.0726 6.24249 11.9556 7.25093 11.9556 8.5002C11.9556 9.74946 13.0726 10.7579 14.4564 10.7579C15.8401 10.7579 16.9572 9.74946 16.9572 8.5002C16.9572 7.25093 15.8401 6.24249 14.4564 6.24249ZM14.4564 9.25277C13.9979 9.25277 13.6228 8.91411 13.6228 8.5002C13.6228 8.08629 13.9979 7.74763 14.4564 7.74763C14.9148 7.74763 15.29 8.08629 15.29 8.5002C15.29 8.91411 14.9148 9.25277 14.4564 9.25277Z" fill="black"/>
</svg>
