<svg width="99" height="16" viewBox="0 0 99 16" fill="none" xmlns="http://www.w3.org/2000/svg">
<path d="M7.5 0L9.18386 5.52786H14.6329L10.2245 8.94427L11.9084 14.4721L7.5 11.0557L3.09161 14.4721L4.77547 8.94427L0.367076 5.52786H5.81614L7.5 0Z" fill="#F4CE14"/>
<path d="M28.5 0L30.1839 5.52786H35.6329L31.2245 8.94427L32.9084 14.4721L28.5 11.0557L24.0916 14.4721L25.7755 8.94427L21.3671 5.52786H26.8161L28.5 0Z" fill="#F4CE14"/>
<path d="M49.5 0L51.1839 5.52786H56.6329L52.2245 8.94427L53.9084 14.4721L49.5 11.0557L45.0916 14.4721L46.7755 8.94427L42.3671 5.52786H47.8161L49.5 0Z" fill="#F4CE14"/>
<path d="M70.5 0L72.1839 5.52786H77.6329L73.2245 8.94427L74.9084 14.4721L70.5 11.0557L66.0916 14.4721L67.7755 8.94427L63.3671 5.52786H68.8161L70.5 0Z" fill="#F4CE14"/>
<path d="M91.5 0L93.1839 5.52786H98.6329L94.2245 8.94427L95.9084 14.4721L91.5 11.0557L87.0916 14.4721L88.7755 8.94427L84.3671 5.52786H89.8161L91.5 0Z" fill="#F4CE14"/>
</svg>
